<svg width="50" height="50" viewBox="0 0 50 50" fill="none" xmlns="http://www.w3.org/2000/svg">
<path d="M0 11.1111C0 4.97461 4.97461 0 11.1111 0H38.8889C45.0254 0 50 4.97461 50 11.1111V38.8889C50 45.0254 45.0254 50 38.8889 50H11.1111C4.97461 50 0 45.0254 0 38.8889V11.1111Z" fill="#38C163"/>
<path fill-rule="evenodd" clip-rule="evenodd" d="M24.2244 6.88885C20.4902 6.88885 17.461 9.90686 17.4428 13.6367H17.4427V13.6706H17.4428C17.461 17.4004 20.4902 20.4184 24.2244 20.4184H26.0013C29.7354 20.4184 32.7647 17.4004 32.7829 13.6706H32.783V13.6367H32.7829C32.7647 9.90686 29.7354 6.88885 26.0013 6.88885H24.2244ZM24.2244 17.3073C22.2028 17.3073 20.5629 15.6731 20.5538 13.6536C20.5629 11.6342 22.2028 9.99997 24.2244 9.99997H26.0013C28.0229 9.99997 29.6627 11.6342 29.6718 13.6536C29.6627 15.6731 28.0229 17.3073 26.0013 17.3073H24.2244ZM17.4638 29.1111C17.4498 29.289 17.4427 29.4688 17.4427 29.6503V33.7336C17.4427 35.0597 17.8315 36.3568 18.5611 37.4643L20.338 40.1617C24.0398 45.7811 32.783 43.1601 32.783 36.4309L32.783 29.6503C32.783 29.4688 32.7759 29.289 32.7619 29.1111H29.6326C29.6585 29.2871 29.6719 29.4671 29.6719 29.6503L29.6719 36.4309C29.6719 40.0731 24.9397 41.4917 22.936 38.4502L21.1591 35.7528C20.7643 35.1534 20.5538 34.4513 20.5538 33.7336V29.6503C20.5538 29.4671 20.5672 29.2871 20.5931 29.1111H17.4638Z" fill="white"/>
</svg>
