<svg width="25" height="24" viewBox="0 0 25 24" fill="none" xmlns="http://www.w3.org/2000/svg">
<g clip-path="url(#clip0_71_68)">
<path fill-rule="evenodd" clip-rule="evenodd" d="M12.8838 0C6.26788 0 0.919556 5.5 0.919556 12.3042C0.919556 17.7432 4.34641 22.3472 9.10037 23.9767C9.69474 24.0992 9.91245 23.712 9.91245 23.3862C9.91245 23.101 9.89286 22.1232 9.89286 21.1045C6.5647 21.838 5.87164 19.6378 5.87164 19.6378C5.33678 18.2118 4.54429 17.8452 4.54429 17.8452C3.45498 17.0915 4.62364 17.0915 4.62364 17.0915C5.83196 17.173 6.466 18.3545 6.466 18.3545C7.53547 20.2285 9.25882 19.699 9.95213 19.373C10.0511 18.5785 10.3682 18.0285 10.7049 17.723C8.05049 17.4377 5.25768 16.3785 5.25768 11.6523C5.25768 10.3078 5.73278 9.20775 6.4856 8.35225C6.36682 8.04675 5.95074 6.7835 6.60462 5.09275C6.60462 5.09275 7.61482 4.76675 9.89262 6.35575C10.8678 6.08642 11.8735 5.9494 12.8838 5.94825C13.894 5.94825 14.9238 6.091 15.8747 6.35575C18.1528 4.76675 19.163 5.09275 19.163 5.09275C19.8169 6.7835 19.4005 8.04675 19.2818 8.35225C20.0544 9.20775 20.5099 10.3078 20.5099 11.6523C20.5099 16.3785 17.7171 17.4172 15.0428 17.723C15.4787 18.11 15.8549 18.8432 15.8549 20.0045C15.8549 21.6545 15.8353 22.9787 15.8353 23.386C15.8353 23.712 16.0533 24.0992 16.6474 23.977C21.4014 22.347 24.8282 17.7432 24.8282 12.3042C24.8478 5.5 19.4799 0 12.8838 0Z" fill="#2C2C2C"/>
</g>
<defs>
<clipPath id="clip0_71_68">
<rect width="24" height="24" fill="white" transform="translate(0.919556)"/>
</clipPath>
</defs>
</svg>
