<svg width="50" height="50" viewBox="0 0 50 50" fill="none" xmlns="http://www.w3.org/2000/svg">
<path d="M0 11.1111C0 4.97461 4.97461 0 11.1111 0H38.8889C45.0254 0 50 4.97461 50 11.1111V38.8889C50 45.0254 45.0254 50 38.8889 50H11.1111C4.97461 50 0 45.0254 0 38.8889V11.1111Z" fill="#FFC61D"/>
<path fill-rule="evenodd" clip-rule="evenodd" d="M20.8915 10.7777L19.5582 10.7777C15.5695 10.7777 12.336 14.0112 12.336 17.9999L12.3359 31.9796C12.3359 36.9566 16.8269 39.8233 20.8915 39.1058V35.6537C18.5689 36.4862 15.6693 34.9141 15.6693 31.9796L15.6693 17.9999C15.6693 15.8521 17.4104 14.111 19.5582 14.111H20.8915V10.7777ZM29.2248 39.1245C33.2597 39.7709 37.6693 36.9112 37.6693 31.9796L37.6693 17.9999C37.6693 14.0111 34.4358 10.7776 30.4471 10.7776H29.2248V14.111H30.4471C32.5948 14.111 34.3359 15.8521 34.3359 17.9999L34.336 31.9796C34.336 34.8675 31.5277 36.4359 29.2248 35.6915V39.1245Z" fill="white"/>
</svg>
