<svg width="50" height="50" viewBox="0 0 50 50" fill="none" xmlns="http://www.w3.org/2000/svg">
<path d="M0 11.1111C0 4.97461 4.97461 0 11.1111 0H38.8889C45.0254 0 50 4.97461 50 11.1111V38.8889C50 45.0254 45.0254 50 38.8889 50H11.1111C4.97461 50 0 45.0254 0 38.8889V11.1111Z" fill="#376FFF"/>
<path fill-rule="evenodd" clip-rule="evenodd" d="M28.484 10.2265C31.3045 7.40603 35.8773 7.40604 38.6978 10.2265L40.0335 11.5621C42.8539 14.3826 42.8539 18.9554 40.0335 21.7759L35.7114 26.098C35.434 26.3754 35.1357 26.6285 34.8199 26.8555L32.4033 24.439C32.7521 24.257 33.0732 24.0221 33.3544 23.741L37.6764 19.4189C39.1951 17.9002 39.1951 15.4379 37.6764 13.9192L36.3408 12.5835C34.8221 11.0648 32.3598 11.0648 30.8411 12.5835L25.6945 17.7301L23.3374 15.3731L28.484 10.2265ZM15.3364 23.0855C14.9752 23.334 14.6357 23.616 14.3229 23.9289L10.0008 28.251C7.18032 31.0714 7.18032 35.6443 10.0008 38.4647L11.3364 39.8004C14.1569 42.6209 18.7297 42.6209 21.5502 39.8004L26.8007 34.5499L24.4437 32.1928L19.1932 37.4434C17.6745 38.9621 15.2122 38.9621 13.6935 37.4434L12.3578 36.1077C10.8391 34.589 10.8391 32.1267 12.3578 30.608L16.6799 26.2859C16.998 25.9678 17.3671 25.709 17.7698 25.5189L15.3364 23.0855Z" fill="white"/>
</svg>
