<svg width="1000" height="1000" viewBox="0 0 1000 1000" fill="none" xmlns="http://www.w3.org/2000/svg">
<path d="M0.00061012 222.222C0.000610248 99.492 99.4929 -0.000244037 222.223 -0.000243909L777.778 -0.000243328C900.508 -0.0002432 1000 99.492 1000 222.222L1000 777.778C1000 900.508 900.508 1000 777.778 1000L222.223 1000C99.4929 1000 0.000609411 900.508 0.000609539 777.778L0.00061012 222.222Z" fill="url(#paint0_linear_75_9)"/>
<g filter="url(#filter0_d_75_9)">
<path fill-rule="evenodd" clip-rule="evenodd" d="M569.707 204.528C626.116 148.119 717.573 148.119 773.982 204.528L800.695 231.241C857.104 287.65 857.104 379.107 800.695 435.517L714.254 521.958C708.712 527.5 702.752 532.558 696.443 537.094L648.115 488.766C655.083 485.128 661.496 480.435 667.113 474.818L753.555 388.376C783.929 358.002 783.929 308.756 753.555 278.382L726.842 251.669C696.468 221.295 647.222 221.295 616.848 251.669L513.932 354.584L466.792 307.443L569.707 204.528ZM306.775 461.696C299.543 466.669 292.747 472.313 286.483 478.577L200.042 565.018C143.633 621.427 143.633 712.884 200.042 769.293L226.755 796.007C283.164 852.416 374.621 852.416 431.03 796.007L536.058 690.979L488.918 643.839L383.889 748.866C353.515 779.24 304.269 779.24 273.895 748.866L247.182 722.153C216.808 691.779 216.808 642.533 247.182 612.159L333.624 525.717C339.992 519.349 347.383 514.169 355.446 510.367L306.775 461.696Z" fill="white"/>
</g>
<defs>
<filter id="filter0_d_75_9" x="107.735" y="117.221" width="785.267" height="776.092" filterUnits="userSpaceOnUse" color-interpolation-filters="sRGB">
<feFlood flood-opacity="0" result="BackgroundImageFix"/>
<feColorMatrix in="SourceAlpha" type="matrix" values="0 0 0 0 0 0 0 0 0 0 0 0 0 0 0 0 0 0 127 0" result="hardAlpha"/>
<feOffset dy="5"/>
<feGaussianBlur stdDeviation="25"/>
<feComposite in2="hardAlpha" operator="out"/>
<feColorMatrix type="matrix" values="0 0 0 0 0.235294 0 0 0 0 0.447059 0 0 0 0 1 0 0 0 0.25 0"/>
<feBlend mode="normal" in2="BackgroundImageFix" result="effect1_dropShadow_75_9"/>
<feBlend mode="normal" in="SourceGraphic" in2="effect1_dropShadow_75_9" result="shape"/>
</filter>
<linearGradient id="paint0_linear_75_9" x1="500.001" y1="-0.000243618" x2="500.001" y2="1000" gradientUnits="userSpaceOnUse">
<stop stop-color="#376FFF"/>
<stop offset="1" stop-color="#376FFF" stop-opacity="0"/>
</linearGradient>
</defs>
</svg>
